<svg xmlns="http://www.w3.org/2000/svg" viewBox="0 0 256 256" role="img" aria-labelledby="title desc">
  <title id="title">Ghost Replay mascot option 3 glasses variant</title>
  <desc id="desc">Playful lilac ghost mascot winking with round glasses and no hat.</desc>
  <defs>
    <linearGradient id="body" x1="0" y1="0" x2="1" y2="1">
      <stop offset="0%" stop-color="#f6edff"/>
      <stop offset="100%" stop-color="#d0abff"/>
    </linearGradient>
  </defs>
  <path fill="url(#body)" stroke="#6f4fa5" stroke-width="8" stroke-linejoin="round" d="M128 36c-40 0-71 30-71 68v67c0 8 7 13 14 10l14-7 15 9 15-9 13 9 13-9 15 9 15-9 14 7c7 3 14-2 14-10v-67c0-38-31-68-71-68Z"/>
  <circle cx="104" cy="113" r="18" fill="none" stroke="#34224f" stroke-width="7"/>
  <circle cx="154" cy="113" r="18" fill="none" stroke="#34224f" stroke-width="7"/>
  <path d="M122 113h14" stroke="#34224f" stroke-width="6" stroke-linecap="round"/>
  <path d="M95 113c5-5 13-5 18 0" fill="none" stroke="#2f1f4b" stroke-width="6" stroke-linecap="round"/>
  <ellipse cx="154" cy="113" rx="8" ry="10" fill="#2f1f4b"/>
  <circle cx="157" cy="109" r="3" fill="#ffffff"/>
  <path d="M99 146c11 13 42 13 53 0" fill="none" stroke="#5c3d90" stroke-width="7" stroke-linecap="round"/>
  <circle cx="88" cy="138" r="6" fill="#e7cbff"/>
  <circle cx="168" cy="138" r="6" fill="#e7cbff"/>
</svg>
