<svg xmlns="http://www.w3.org/2000/svg" viewBox="0 0 256 256" role="img" aria-labelledby="title desc">
  <title id="title">Ghost Replay mascot option 4</title>
  <desc id="desc">Friendly lilac ghost with square glasses and a tiny thinking brow.</desc>
  <defs>
    <linearGradient id="body" x1="0" y1="0" x2="1" y2="1">
      <stop offset="0%" stop-color="#f2e7ff"/>
      <stop offset="100%" stop-color="#caa2ff"/>
    </linearGradient>
  </defs>
  <path fill="url(#body)" stroke="#654796" stroke-width="8" stroke-linejoin="round" d="M128 34c-40 0-72 31-72 70v68c0 8 8 13 15 9l13-6 15 10 14-10 15 10 15-10 14 10 15-10 13 6c7 4 15-1 15-9v-68c0-39-32-70-72-70Z"/>
  <rect x="83" y="92" width="39" height="34" rx="8" fill="none" stroke="#332049" stroke-width="7"/>
  <rect x="134" y="92" width="39" height="34" rx="8" fill="none" stroke="#332049" stroke-width="7"/>
  <path d="M122 108h12" stroke="#332049" stroke-width="6" stroke-linecap="round"/>
  <circle cx="101" cy="109" r="7" fill="#2f1e48"/>
  <circle cx="151" cy="109" r="7" fill="#2f1e48"/>
  <path d="M95 83c8-5 18-5 25 0" fill="none" stroke="#7d58b7" stroke-width="5" stroke-linecap="round"/>
  <path d="M102 145c11 8 40 8 51 0" fill="none" stroke="#553783" stroke-width="7" stroke-linecap="round"/>
</svg>
