<svg xmlns="http://www.w3.org/2000/svg" viewBox="0 0 256 256" role="img" aria-labelledby="title desc">
  <title id="title">Ghost Replay mascot option 1</title>
  <desc id="desc">Cute lilac ghost with bright eyes and a playful smile.</desc>
  <defs>
    <linearGradient id="body" x1="0" y1="0" x2="1" y2="1">
      <stop offset="0%" stop-color="#f4ebff"/>
      <stop offset="100%" stop-color="#d6b4ff"/>
    </linearGradient>
  </defs>
  <path fill="url(#body)" stroke="#6d4ea3" stroke-width="8" stroke-linejoin="round" d="M128 36c-39 0-70 30-70 68v66c0 8 7 13 14 10l14-7 15 9 15-9 12 9 12-9 15 9 15-9 14 7c7 3 14-2 14-10v-66c0-38-31-68-70-68Z"/>
  <ellipse cx="102" cy="112" rx="13" ry="16" fill="#2f1f4d"/>
  <ellipse cx="154" cy="112" rx="13" ry="16" fill="#2f1f4d"/>
  <circle cx="106" cy="106" r="4" fill="#ffffff"/>
  <circle cx="158" cy="106" r="4" fill="#ffffff"/>
  <path d="M103 145c10 10 40 10 50 0" fill="none" stroke="#5e3f95" stroke-width="7" stroke-linecap="round"/>
  <circle cx="88" cy="137" r="7" fill="#e4c7ff"/>
  <circle cx="168" cy="137" r="7" fill="#e4c7ff"/>
</svg>
